<svg width="163" height="40" viewBox="0 0 163 40" fill="none" xmlns="http://www.w3.org/2000/svg">
<g clip-path="url(#clip0_139_157)">
<g clip-path="url(#clip1_139_157)">
<path d="M40.3195 0.539772C39.0511 0.704159 35.4468 1.50343 27.4058 3.41375C13.9985 6.59384 3.18539 9.22407 0.556728 9.94399L-0.0057373 10.097L0.183664 10.2217C0.516551 10.4428 1.70461 11.0664 3.30018 11.8486C5.63613 13.005 9.59634 14.9097 9.60782 14.887C9.6193 14.8757 9.73409 14.5866 9.87183 14.2465C10.2334 13.3281 10.3482 13.2374 11.5133 12.886C13.7173 12.2228 28.9842 8.75925 31.2111 8.41913L31.7391 8.33977V8.47015C31.7391 9.27509 25.4085 27.1312 24.6624 28.418C24.3983 28.8771 23.8244 29.1832 23.0611 29.2683L22.7397 29.3023L22.8717 29.6821C23.48 31.4393 25.11 35.9856 25.4085 36.7792C25.9939 38.321 26.476 39.364 26.6023 39.3584C26.6367 39.3527 26.7802 39.0353 26.9352 38.6498C27.3369 37.6068 30.046 30.2319 31.9974 24.8751C34.2702 18.6226 36.939 11.3328 39.1143 5.43178C40.2908 2.24602 40.882 0.568115 40.8418 0.545441C40.7787 0.500092 40.6237 0.500092 40.3195 0.539772Z" fill="#2460A2"/>
<path d="M82.7053 10.0231V19.5464H84.5477H86.39L86.3613 11.4516C86.3326 3.28316 86.3097 2.4272 86.1145 1.7413C85.8677 0.868334 85.0814 0.505543 83.4399 0.499874H82.7053V10.0231Z" fill="#2460A2"/>
<path d="M88.8465 7.78997C88.8465 15.0968 88.8809 16.7124 89.0531 17.6193C89.1622 18.2032 89.3803 18.7077 89.6041 18.8948C89.9485 19.1839 90.178 19.2065 92.5083 19.2065H94.6548L94.6318 18.0842C94.6089 16.8938 94.5745 16.718 94.3219 16.6047C94.2473 16.5706 93.9431 16.514 93.6504 16.4799C93.0191 16.4063 92.8411 16.3269 92.6977 16.0435C92.5255 15.709 92.359 14.5696 92.2844 13.2205C92.2213 12.0188 92.25 8.57224 92.3303 7.68794L92.3648 7.30814L92.8871 7.1891C94.0981 6.91134 94.5056 6.55422 94.6146 5.70393C94.7122 4.933 94.5745 4.80262 93.6447 4.7516C92.4107 4.68358 92.2615 4.48518 92.1811 2.76192C92.1352 1.83794 92.1237 1.78692 91.9458 1.4298C91.6014 0.73823 91.1882 0.562504 89.782 0.517155L88.8465 0.483143V7.78997Z" fill="#2460A2"/>
<path d="M96.8243 1.86062V3.23242L98.3911 3.20975C100.4 3.17007 100.44 3.15873 100.44 2.50684C100.44 1.81527 100.159 1.23707 99.671 0.913962C99.2291 0.613526 98.9192 0.551172 97.8172 0.51716L96.8243 0.483148V1.86062Z" fill="#2460A2"/>
<path d="M108.412 4.55293C106.524 4.8477 105.181 5.51093 104.291 6.59363C103.207 7.91441 102.673 9.74537 102.667 12.1489C102.661 15.0909 103.58 17.3016 105.342 18.6111C105.956 19.0646 107.023 19.484 108.102 19.6938C108.82 19.8355 110.329 19.8355 111.001 19.6994C112.9 19.3026 114.353 18.3163 115.254 16.8198C115.409 16.5647 116.051 15.1135 116.051 15.0228C116.051 15.0115 115.5 15.0115 114.835 15.0285C113.142 15.0739 112.7 15.1759 111.615 15.7881C110.243 16.559 108.986 16.6894 107.947 16.1679C107.138 15.7654 106.587 14.8698 106.581 13.9515C106.581 13.5774 106.616 13.498 106.817 13.3903C107.127 13.2372 108.097 13.2032 112.281 13.1976C115.581 13.1976 116.453 13.1805 116.453 13.1239C116.453 13.0898 116.402 12.54 116.338 11.9051C116.138 9.89276 115.776 8.37357 115.3 7.53462C114.18 5.55627 112.131 4.45656 109.623 4.47357C109.227 4.47924 108.682 4.51325 108.412 4.55293ZM110.042 7.56296C110.978 7.80104 111.609 8.37924 111.953 9.32023C112.028 9.5243 112.091 9.80206 112.091 9.93811C112.091 10.1592 112.068 10.1989 111.925 10.2782C111.632 10.4256 111.024 10.4766 109.508 10.4766C108.039 10.4766 107.121 10.4143 106.759 10.3009C106.576 10.2385 106.57 10.2272 106.599 10.0118C106.656 9.59232 107.207 8.60032 107.683 8.0618C107.873 7.85206 108.183 7.67066 108.561 7.55162C108.883 7.44959 109.629 7.45526 110.042 7.56296Z" fill="#E51D77"/>
<path d="M138.952 4.53038C138.068 4.59273 137.5 4.72311 136.914 5.00087C135.881 5.48837 135.026 6.32733 134.492 7.38736C134.113 8.12994 134.108 8.37936 134.464 8.53808C134.636 8.61178 134.877 8.62878 135.766 8.63445C137.138 8.63445 137.569 8.54942 138.137 8.16962C138.94 7.63678 139.428 7.47239 140.214 7.47239C141.632 7.47805 142.728 8.19797 142.516 8.9859C142.482 9.11061 142.401 9.28067 142.332 9.3657C142.074 9.68881 141.23 9.98358 139.394 10.3917C137.965 10.7035 137.167 10.9246 136.507 11.191C134.441 12.0129 133.74 13.2033 133.907 15.6012C133.999 16.8709 134.326 17.7326 134.957 18.3788C136.335 19.7733 139.044 20.1474 142.028 19.3481C143.302 19.008 144.157 18.5545 144.863 17.8516C145.793 16.9276 146.138 15.9129 146.304 13.6228C146.379 12.5231 146.344 8.99724 146.247 8.29433C146.155 7.64244 145.988 7.0189 145.799 6.6391C145.231 5.46003 143.463 4.71744 140.783 4.53038C139.882 4.46236 139.836 4.46236 138.952 4.53038ZM142.705 12.7272C142.774 14.0536 142.619 14.7055 142.08 15.3801C141.672 15.8846 141.27 16.2134 140.76 16.4571C140.232 16.7122 139.841 16.7859 139.273 16.7576C138.527 16.7179 137.97 16.3948 137.672 15.8336C137.505 15.5105 137.471 14.7849 137.603 14.3881C137.827 13.7249 138.688 13.175 140.243 12.6932C141.156 12.4154 142.516 12.0186 142.602 12.0129C142.648 12.0073 142.682 12.251 142.705 12.7272Z" fill="#E51D77"/>
<path d="M123.886 4.58723C123.3 4.66659 122.221 4.91034 121.791 5.06906C119.839 5.79465 118.428 7.67095 118.181 9.85903C118.02 11.2648 117.986 13.2602 118.02 19.2859C118.037 22.6474 118.06 25.4023 118.072 25.4137C118.106 25.4477 119.662 25.323 120.138 25.2436C120.884 25.1189 121.171 24.9999 121.286 24.7618C121.481 24.365 121.515 23.8208 121.544 20.7201C121.561 19.0478 121.584 17.676 121.601 17.676C121.619 17.676 121.843 17.8631 122.101 18.0898C122.749 18.668 123.128 18.9345 123.656 19.1952C125.734 20.2156 128.23 19.8414 129.958 18.2429C130.951 17.3246 131.565 16.1398 131.818 14.6433C131.95 13.8611 131.967 11.1628 131.846 10.3069C131.737 9.52459 131.502 8.52124 131.33 8.0961C130.601 6.28214 128.724 4.95002 126.428 4.61558C125.774 4.51921 124.546 4.50787 123.886 4.58723ZM126.176 7.92604C126.842 8.13011 127.295 8.65729 127.68 9.67197C128.167 10.9587 128.271 12.7103 127.932 14.0198C127.444 15.9358 125.854 16.8938 124.173 16.2929C123.645 16.1058 123.3 15.8621 122.767 15.3179C121.997 14.5243 121.848 14.0935 121.848 12.6367C121.848 10.4316 122.17 9.13345 122.887 8.42488C123.214 8.10177 123.541 7.94305 124.11 7.83534C124.678 7.72764 125.665 7.77299 126.176 7.92604Z" fill="#E51D77"/>
<path d="M48.9516 4.63804C48.1883 4.76842 47.1035 5.19356 46.4779 5.60737C45.5022 6.25926 44.7676 7.37598 44.5208 8.60606C44.3429 9.47336 44.2568 11.3497 44.165 16.6271C44.1477 17.6532 44.119 18.7359 44.1018 19.0193L44.0674 19.5465H45.9327H47.798L47.8267 15.4197C47.8497 12.0979 47.8726 11.1683 47.9472 10.6184C48.1711 8.92917 48.5728 8.16391 49.3821 7.88615C49.8183 7.7331 51.3794 7.73877 51.8271 7.89182C52.4584 8.10723 52.8659 8.67976 53.0611 9.62641C53.2562 10.5391 53.2792 11.0549 53.3021 15.278L53.3308 19.5465H55.1273H56.9237L56.9582 18.6225C56.9754 18.118 57.0156 16.1453 57.05 14.2463C57.1303 9.7908 57.182 9.1956 57.5034 8.71944C57.8478 8.20926 58.5824 7.82946 59.3228 7.77278C60.2067 7.70476 60.9184 7.98252 61.8367 8.74778L62.3819 9.20127V9.56973C62.3934 10.3577 62.5656 15.3857 62.6172 16.4571C62.732 18.5885 62.8927 19.1383 63.4667 19.3934C63.702 19.4955 63.8799 19.5125 64.9647 19.5351L66.1929 19.5635L66.1527 16.9616C66.0666 11.395 65.9863 9.35432 65.8026 8.47569C65.7051 7.99952 65.4123 7.33063 65.1139 6.87714C64.8212 6.42932 64.1038 5.73775 63.6848 5.494C62.5598 4.83644 60.9011 4.55868 58.8694 4.68906C57.6354 4.76842 57.0213 4.8988 56.2809 5.24458C55.4946 5.61304 55.2306 5.61304 54.2664 5.25025C53.4743 4.94981 52.7569 4.78542 51.7238 4.66638C50.9662 4.57569 49.4051 4.56435 48.9516 4.63804Z" fill="#2460A2"/>
<path d="M68.3567 8.50404C68.3567 13.5264 68.46 15.7258 68.7298 16.4968C69.2463 17.999 70.7558 19.0873 72.9368 19.5522C73.7173 19.7165 75.1866 19.7562 75.9614 19.6372C77.557 19.3991 78.9287 18.7245 79.6863 17.8119C80.025 17.4038 80.4899 16.4798 80.6046 15.9753C80.794 15.159 80.8227 14.4561 80.8514 9.60942L80.8801 4.74009L79.6576 4.76276C78.4524 4.77977 78.4237 4.78544 78.108 4.93282C77.712 5.12556 77.5168 5.443 77.3906 6.09489C77.2758 6.69576 77.2012 8.78747 77.1954 11.6104C77.1897 15.0343 77.1495 15.329 76.5239 15.9809C75.4679 17.0863 73.9412 17.143 72.7933 16.117C72.38 15.7542 72.1734 15.3801 72.0816 14.8415C72.0414 14.5978 72.007 12.7895 71.9898 9.60942L71.9611 4.75143H70.1589H68.3567V8.50404Z" fill="#2460A2"/>
<path d="M96.8243 12.1432V19.5464H98.6322H100.44V14.2576C100.44 11.3553 100.411 8.48694 100.383 7.88606C100.268 5.80569 100.061 5.18214 99.3783 4.8817C99.1889 4.80234 98.9421 4.77967 97.9894 4.76266L96.8243 4.73999V12.1432Z" fill="#2460A2"/>
<path d="M148.221 4.80264C147.974 4.83099 147.934 4.85366 147.951 4.95003C147.963 5.01238 148.565 6.76965 149.294 8.86136C152.135 17.0298 152.87 19.2519 153.019 20.1192C153.128 20.7598 153.077 20.9242 152.617 21.3606C151.917 22.0239 151.269 22.2676 150.161 22.2676H149.455V23.7698V25.272H150.735C153.002 25.272 154.11 24.9772 154.93 24.1723C155.286 23.8208 155.401 23.5884 155.906 22.2676C157.68 17.5853 161.967 5.34683 161.967 4.95003C161.967 4.82532 161.525 4.77997 160.331 4.77997C159.063 4.77997 158.805 4.83665 158.426 5.21078C157.932 5.68694 157.771 6.12343 156.71 9.74C155.843 12.6877 155.372 14.1502 155.189 14.4449C155.074 14.632 155.062 14.632 154.982 14.53C154.85 14.3486 154.219 12.3532 153.071 8.4929L152.003 4.89334L150.597 4.83099C149.059 4.75729 148.651 4.75163 148.221 4.80264Z" fill="#E51D77"/>
<path d="M26.9753 11.8487C22.1198 13.0051 19.9044 13.5323 16.1278 14.4222C12.6497 15.2385 11.6568 15.4936 11.565 15.5843L11.4502 15.6977L11.5937 15.8167C11.806 15.9868 12.2652 16.2022 13.2294 16.582C15.0431 17.3019 15.2439 17.3302 16.1508 16.9504C16.8797 16.6443 18.062 16.2985 19.9732 15.8394C21.8558 15.3859 23.1357 15.1251 23.7211 15.0855L24.163 15.0514V15.2215C24.163 15.59 23.2562 18.4243 22.5675 20.1985C22.2977 20.8958 22.2001 21.1282 21.5688 22.5227C21.2589 23.2029 21.1785 23.5033 21.1785 23.9795C21.1785 24.8581 21.9074 27.3183 22.1944 27.409C22.2288 27.426 22.2977 27.358 22.3494 27.273C22.533 26.9158 23.876 23.3163 25.5003 18.8097C25.9939 17.4549 26.7285 15.4256 27.1418 14.2975C27.5493 13.1751 27.9051 12.1208 27.9281 11.9621C27.9625 11.6786 27.9625 11.6673 27.8305 11.673C27.7559 11.673 27.3714 11.7523 26.9753 11.8487Z" fill="#E51D77"/>
<path d="M117.658 30.8329C116.539 31.0257 115.621 31.9326 115.328 33.1287C115.196 33.6616 115.202 34.6933 115.334 35.2204C115.615 36.3258 116.413 37.1648 117.452 37.4369C117.842 37.5389 118.703 37.5389 119.122 37.4312C120.075 37.1818 120.798 36.4789 121.142 35.4472C121.274 35.0447 121.292 34.903 121.297 34.2001C121.297 33.6049 121.274 33.3158 121.194 33.0437C120.907 32.012 120.213 31.2581 119.277 30.9463C118.864 30.8103 118.1 30.7536 117.658 30.8329ZM118.933 31.961C119.484 32.1651 119.926 32.7546 120.069 33.4802C120.172 33.979 120.115 34.852 119.96 35.2545C119.707 35.912 119.266 36.3088 118.651 36.4449C118.244 36.5356 117.704 36.4505 117.343 36.2408C116.648 35.8383 116.27 34.7329 116.447 33.6049C116.574 32.8056 116.924 32.2841 117.515 32.0063C117.945 31.8079 118.473 31.7909 118.933 31.961Z" fill="#E51D77"/>
<path d="M46.6329 30.9516C46.5985 31.0423 44.5667 36.7393 44.4175 37.1644L44.3142 37.4648L44.9513 37.4478L45.5883 37.4308L45.8581 36.6372L46.1278 35.8436L47.3963 35.8266L48.6589 35.8153L48.9344 36.6372L49.2099 37.4592H49.8585H50.507L50.4439 37.3005C50.4095 37.2154 49.9044 35.8096 49.319 34.1714C48.7335 32.5332 48.2285 31.1273 48.1998 31.0366L48.1424 30.8836H47.402C46.8567 30.8836 46.6501 30.9006 46.6329 30.9516ZM47.8956 33.5478C48.1309 34.2507 48.326 34.8403 48.326 34.863C48.326 34.8913 47.9128 34.9083 47.4077 34.9083C46.7592 34.9083 46.4894 34.8913 46.4894 34.8459C46.4894 34.6929 47.3848 32.1987 47.425 32.2384C47.4479 32.2611 47.6603 32.8506 47.8956 33.5478Z" fill="#E51D77"/>
<path d="M55.9021 34.166V37.4595H57.182C58.0085 37.4538 58.6111 37.4255 58.9039 37.3744C60.4592 37.1024 61.3546 35.9346 61.3546 34.1774C61.3489 32.5448 60.706 31.5244 59.386 31.0483C59.0588 30.9292 58.9153 30.9179 57.469 30.8952L55.9021 30.8726V34.166ZM59.0875 32.063C59.8796 32.4201 60.2756 33.2704 60.1895 34.4211C60.1091 35.3734 59.7762 35.9403 59.1047 36.2407C58.7718 36.3938 58.68 36.4108 57.9282 36.4278L57.1074 36.4505V34.1717V31.8929L57.9568 31.9156C58.6858 31.9326 58.8407 31.9496 59.0875 32.063Z" fill="#E51D77"/>
<path d="M67.0366 34.1717V37.4595H67.6106H68.1845V35.192C68.1845 33.9449 68.2075 32.9246 68.2304 32.9246C68.2534 32.9246 68.6838 33.9336 69.1832 35.1637L70.0957 37.4028H70.5377H70.9739L71.8922 35.1637C72.3915 33.9336 72.822 32.9246 72.8507 32.9246C72.8736 32.9246 72.8908 33.9449 72.8908 35.192V37.4595H73.4648H74.0387V34.1717V30.8839H73.2983H72.5637L71.5823 33.2477C71.0427 34.5515 70.5779 35.6228 70.5492 35.6342C70.4918 35.6512 70.4918 35.6569 69.3324 32.8509L68.5174 30.8839H67.777H67.0366V34.1717Z" fill="#E51D77"/>
<path d="M79.8929 34.1717V37.4595H80.4669H81.0408V34.1717V30.8839H80.4669H79.8929V34.1717Z" fill="#E51D77"/>
<path d="M86.8951 34.1717V37.4595H87.4977H88.1004V35.2147C88.1004 33.4234 88.1176 32.9813 88.175 33.0266C88.2094 33.0606 88.9268 34.0696 89.7648 35.2714L91.2857 37.4538L91.8195 37.4595H92.3475V34.1717V30.8839H91.7736H91.1997V33.123C91.1997 34.4551 91.1767 35.3621 91.148 35.3621C91.1193 35.3621 90.3904 34.3531 89.5295 33.123L87.9626 30.8839H87.4288H86.8951V34.1717Z" fill="#E51D77"/>
<path d="M104.974 34.1717V37.4595H105.577H106.18V36.3314V35.2034L107.23 35.1807L108.274 35.1637L108.659 34.9766C109.371 34.6308 109.744 34.0413 109.784 33.2024C109.83 32.2274 109.463 31.5244 108.705 31.139C108.274 30.9179 107.976 30.8839 106.455 30.8839H104.974V34.1717ZM107.827 31.9326C108.343 32.0856 108.625 32.5391 108.579 33.1457C108.516 34.0016 108.056 34.2851 106.748 34.2851H106.18V33.0663V31.8476H106.857C107.293 31.8476 107.637 31.8759 107.827 31.9326Z" fill="#E51D77"/>
<path d="M127.014 34.1714V37.4592H127.588H128.162V36.2404V35.016L128.799 35.033L129.436 35.05L130.084 36.2404L130.733 37.4308L131.399 37.4478L132.07 37.4648L132.001 37.3345C131.864 37.068 130.899 35.3221 130.767 35.0954L130.63 34.863L130.882 34.7156C131.02 34.6362 131.238 34.4548 131.364 34.3074C131.691 33.9446 131.806 33.5818 131.806 32.9186C131.8 32.4198 131.783 32.3404 131.617 32.0003C131.341 31.4505 130.865 31.0877 130.216 30.9403C130.079 30.9119 129.304 30.8836 128.495 30.8836H127.014V34.1714ZM130.027 31.972C130.882 32.4255 130.802 33.7236 129.901 33.99C129.769 34.0297 129.338 34.058 128.913 34.058H128.162V32.947V31.8359L129.011 31.8586C129.642 31.8756 129.901 31.9039 130.027 31.972Z" fill="#E51D77"/>
<path d="M137.173 31.3657V31.8476H138.206H139.239V34.6535V37.4595H139.813H140.387L140.398 34.6649L140.415 31.8759L141.437 31.8589L142.453 31.8476V31.3657V30.8839H139.813H137.173V31.3657Z" fill="#E51D77"/>
<path d="M147.974 34.132C147.337 35.9233 146.815 37.4028 146.815 37.4198C146.815 37.4425 147.09 37.4595 147.435 37.4595H148.049L148.33 36.6375L148.611 35.8156L149.874 35.8269L151.137 35.8439L151.326 36.4108C151.435 36.7226 151.561 37.0853 151.613 37.2214L151.705 37.4595H152.336C152.91 37.4595 152.962 37.4481 152.933 37.3574C152.91 37.3064 152.388 35.8326 151.762 34.0867L150.632 30.9122L149.88 30.8952L149.134 30.8782L147.974 34.132ZM150.345 33.4971C150.58 34.1944 150.775 34.7952 150.775 34.8349C150.775 34.8916 150.568 34.9086 149.897 34.9086C149.409 34.9086 149.002 34.8916 148.984 34.8746C148.967 34.8576 149.139 34.2794 149.375 33.5878C149.88 32.0856 149.851 32.165 149.891 32.199C149.903 32.216 150.109 32.7999 150.345 33.4971Z" fill="#E51D77"/>
<path d="M158.351 34.1717V37.4595H160.417H162.483V36.9776V36.4958H161.02H159.556V33.6899V30.8839H158.954H158.351V34.1717Z" fill="#E51D77"/>
</g>
</g>
<defs>
<clipPath id="clip0_139_157">
<rect width="163" height="39" fill="white" transform="translate(0 0.5)"/>
</clipPath>
<clipPath id="clip1_139_157">
<rect width="163" height="39" fill="white" transform="translate(0 0.5)"/>
</clipPath>
</defs>
</svg>
